HIERARCHY
ROOT RootJoint
{
    OFFSET   0.000000   0.000000   0.000000
    CHANNELS 6 Xposition Yposition Zposition Xrotation Yrotation Zrotation
    JOINT pelvis_lowerback
    {
        OFFSET   0.000000   0.093605   0.000000
        CHANNELS 3 Xrotation Yrotation Zrotation
        JOINT lowerback_torso
        {
            OFFSET   0.000000   0.100000   0.000000
            CHANNELS 3 Xrotation Yrotation Zrotation
            JOINT torso_head
            {
                OFFSET   0.000000   0.282350   0.000000
                CHANNELS 3 Xrotation Yrotation Zrotation
                End Site
                {
                    OFFSET   0.000000   0.192650   0.000000
                }
            }
            JOINT rTorso_Clavicle
            {
                OFFSET  -0.001000   0.157500   0.000000
                CHANNELS 3 Xrotation Yrotation Zrotation
                JOINT rShoulder
                {
                    OFFSET  -0.117647   0.000000   0.000000
                    CHANNELS 3 Xrotation Yrotation Zrotation
                    JOINT rElbow
                    {
                        OFFSET  -0.245000   0.000000   0.000000
                        CHANNELS 3 Xrotation Yrotation Zrotation
                        JOINT rWrist
                        {
                            OFFSET  -0.240000   0.000000   0.000000
                            CHANNELS 3 Xrotation Yrotation Zrotation
                            End Site
                            {
                                OFFSET  -0.116353  -0.002500   0.000000
                            }
                        }
                    }
                }
            }
            JOINT lTorso_Clavicle
            {
                OFFSET   0.001000   0.157500   0.000000
                CHANNELS 3 Xrotation Yrotation Zrotation
                JOINT lShoulder
                {
                    OFFSET   0.117647   0.000000   0.000000
                    CHANNELS 3 Xrotation Yrotation Zrotation
                    JOINT lElbow
                    {
                        OFFSET   0.245000   0.000000   0.000000
                        CHANNELS 3 Xrotation Yrotation Zrotation
                        JOINT lWrist
                        {
                            OFFSET   0.240000   0.000000   0.000000
                            CHANNELS 3 Xrotation Yrotation Zrotation
                            End Site
                            {
                                OFFSET   0.116353  -0.002500   0.000000
                            }
                        }
                    }
                }
            }
        }
    }
    JOINT rHip
    {
        OFFSET  -0.100000  -0.051395   0.000000
        CHANNELS 3 Xrotation Yrotation Zrotation
        JOINT rKnee
        {
            OFFSET   0.000000  -0.410000   0.000000
            CHANNELS 3 Xrotation Yrotation Zrotation
            JOINT rAnkle
            {
                OFFSET   0.000000  -0.390000   0.000000
                CHANNELS 3 Xrotation Yrotation Zrotation
                JOINT rToeJoint
                {
                    OFFSET   0.000000  -0.050000   0.130000
                    CHANNELS 3 Xrotation Yrotation Zrotation
                    End Site
                    {
                        OFFSET  -0.010000   0.002000   0.060000
                    }
                }
            }
        }
    }
    JOINT lHip
    {
        OFFSET   0.100000  -0.051395   0.000000
        CHANNELS 3 Xrotation Yrotation Zrotation
        JOINT lKnee
        {
            OFFSET   0.000000  -0.410000   0.000000
            CHANNELS 3 Xrotation Yrotation Zrotation
            JOINT lAnkle
            {
                OFFSET   0.000000  -0.390000   0.000000
                CHANNELS 3 Xrotation Yrotation Zrotation
                JOINT lToeJoint
                {
                    OFFSET   0.000000  -0.050000   0.130000
                    CHANNELS 3 Xrotation Yrotation Zrotation
                    End Site
                    {
                        OFFSET   0.010000   0.002000   0.060000
                    }
                }
            }
        }
    }
}
MOTION
Frames: 8
Frame Time:   0.008333
 -2.376719   0.925631   3.975860   0.000000   0.000000   0.000000   0.000000   0.000000   0.000000   0.000000   0.000000   0.000000   0.000000   0.000000   0.000000   0.000000   0.000000   0.000000   0.000000   0.000000   0.000000   0.000000   0.000000   0.000000   0.000000   0.000000   0.000000   0.000000   0.000000   0.000000   0.000000   0.000000   0.000000   0.000000   0.000000   0.000000   0.000000   0.000000   0.000000   0.000000   0.000000   0.000000   0.000000   0.000000   0.000000   0.000000   0.000000   0.000000   0.000000   0.000000   0.000000   0.000000   0.000000   0.000000   0.000000   0.000000   0.000000   0.000000   0.000000   0.000000   0.000000   0.000000   0.000000
 -2.377855   0.925614   3.974568  -0.528230   0.280705  -1.049671   1.013543  -0.226227   0.855413  -0.111949  -0.293574   0.477121  -0.065615  -0.035491   0.048205  -0.130647  -0.501881  -0.577937  -0.689250   0.438016   1.897571   0.041581   3.017592   0.010798   0.158282  -1.423916  -2.122022   0.012160   0.249353   0.057510   0.911751   0.446090  -2.410445   0.031639  -1.734786   0.019860   0.163535   0.532664   2.409105  -0.102237  -0.446933   1.408258   2.397502  -0.007601  -0.003237  -2.503260  -0.607661  -0.870218   0.468297   0.002071  -0.003210  -0.841206  -0.048457   1.327367   3.544856  -0.008384   0.008027  -2.936770   0.219942  -0.533217   0.224927   0.000491   0.000902
 -2.379230   0.926738   3.973235  -1.289491   0.564126  -2.036469   2.127939  -0.425656   1.603421  -0.024577  -0.572097   0.977692  -0.066984  -0.080061   0.149104  -0.259149  -0.854815  -0.589923  -1.366460   0.986845   4.083596   0.093994   5.973866   0.017120   0.302523  -1.855908  -3.730903   0.036326   0.415461  -0.500516   1.813040   0.767672  -5.267799   0.072928  -3.412924   0.036033   0.370810   0.607748   4.225259   0.096229  -0.875379   2.858199   4.989097  -0.016896  -0.004839  -4.847764  -1.145869  -1.706192   0.805069   0.002700  -0.004644  -1.887376  -0.059203   2.538941   7.230056  -0.012469   0.018391  -5.581435   0.489769  -1.074651   0.470352   0.001082   0.001989
 -2.380928   0.927485   3.972166  -2.094811   0.674656  -3.106467   3.171057  -0.511944   2.385810   0.109335  -0.755332   1.472562  -0.048475  -0.121769   0.261418  -0.372881  -1.072061  -0.304179  -2.025595   1.563509   6.375402   0.140234   8.775108   0.022943   0.450488  -1.910663  -4.707315   0.060308   0.531208  -1.402661   2.665705   0.989646  -8.245928   0.111151  -4.996267   0.046305   0.583535   0.507433   5.282263   0.446652  -1.255043   4.467370   7.505077  -0.026127  -0.007992  -7.041850  -1.611953  -2.502335   1.099187   0.002764  -0.005680  -2.909097  -0.121399   3.900197  11.061878  -0.017498   0.022303  -8.130691   0.734515  -1.506620   0.637313   0.001100   0.002165
 -2.382747   0.927658   3.971339  -2.885636   0.664638  -4.118876   4.127703  -0.526560   3.079504   0.230477  -0.866014   1.909900  -0.032575  -0.160741   0.373367  -0.471323  -1.198351   0.187296  -2.664988   2.130267   8.691173   0.175747  11.411611   0.028579   0.596839  -1.806026  -5.255315   0.081189   0.620628  -2.507298   3.469744   1.137087 -11.222398   0.142541  -6.481370   0.051930   0.791632   0.338312   5.844397   0.887411  -1.595492   6.043254   9.895575  -0.034006  -0.011367  -9.095811  -2.017419  -3.260030   1.360502   0.002589  -0.006353  -3.923193  -0.209771   5.223467  14.895108  -0.022079   0.023064 -10.507619   0.980444  -1.896734   0.792642   0.001022   0.002142
 -2.384607   0.927120   3.970724  -3.651274   0.570562  -5.057502   5.003895  -0.491798   3.681783   0.330717  -0.924527   2.278557  -0.022946  -0.197303   0.477958  -0.554897  -1.267680   0.798874  -3.282173   2.665805  10.974746   0.199432  13.884046   0.033685   0.737583  -1.631354  -5.517092   0.099597   0.698576  -3.723331   4.226663   1.227040 -14.137022   0.165940  -7.870151   0.054264   0.990423   0.147436   6.076768   1.394280  -1.895231   7.551786  12.156073  -0.040338  -0.014167 -11.017799  -2.370311  -3.980274   1.595837   0.002306  -0.006705  -4.932324  -0.320348   6.477152  18.712016  -0.026035   0.022420 -12.725269   1.224474  -2.249962   0.933436   0.000893   0.002016
 -2.386467   0.925778   3.970296  -4.391262   0.415936  -5.926197   5.807727  -0.421812   4.201250   0.412876  -0.944815   2.582337  -0.018574  -0.231584   0.574169  -0.625053  -1.302569   1.468863  -3.875209   3.159854  13.187475   0.212077  16.197740   0.038005   0.870922  -1.429202  -5.596480   0.117210   0.774060  -4.989476   4.938323   1.272432 -16.953435   0.181538  -9.166545   0.054360   1.177794  -0.042746   6.088225   1.950751  -2.153772   8.987943  14.291026  -0.045173  -0.016126 -12.815569  -2.677051  -4.663650   1.809019   0.001980  -0.006796  -5.931936  -0.451040   7.657885  22.511770  -0.029362   0.021275 -14.794658   1.464408  -2.570106   1.059904   0.000744   0.001848
 -2.388081   0.923250   3.969253  -4.874787   0.230297  -6.580302   6.540087  -0.297888   4.544889   0.375461  -0.937811   2.775931  -0.240128  -0.170076   0.611400  -0.693307  -1.389705   1.741983  -4.165848   3.730975  15.383551   0.220834  18.818145   0.033072   0.974211  -1.607141  -5.254344   0.199233   0.850108  -5.737902   5.573650   1.179852 -19.865019   0.184053 -10.282395   0.053411   1.300823  -0.333012   5.656677   2.554109  -2.388915  10.134247  15.465377  -0.042663  -0.015823 -14.318065  -3.026242  -5.212336   2.030315   0.001557  -0.007116  -7.513579  -0.512995   8.586242  26.517697  -0.029452   0.025052 -15.434928   1.689898  -2.700930   1.086778   0.000557   0.001573
